# xmcd
#
# Track frame offsets: 
#        150
#        12312
#        26330
#        45352
#        62135
#        77765
#        92665
#        108367
#        124160
#        141762
#        155375
#
# Disc length: 2372 seconds
#
# Revision: 4
# Processed by: cddbd v1.5.1PL2 Copyright (c) Steve Scherf et al.
# Submitted via: ExactAudioCopy v0.95b3
#
DISCID=8109420b
DTITLE=Lee Roy Parnell - We All Get Lucky Sometimes
DYEAR=1995
DGENRE=Country
TTITLE0=A Little Bit Of You
TTITLE1=Knock Yourself Out
TTITLE2=Heart's Desire
TTITLE3=When A Woman Loves A Man
TTITLE4=If The House Is Rockin'
TTITLE5=We All Get Lucky Sometimes
TTITLE6=Saved By The Grace Of Your Love
TTITLE7=Givin' Water To A Drowning Man
TTITLE8=I Had To Let It Go
TTITLE9=Squeeze Me In
TTITLE10=Cat Walk (Instrumental With Flaco Jimenez)
EXTD=
EXTT0=
EXTT1=
EXTT2=
EXTT3=
EXTT4=
EXTT5=
EXTT6=
EXTT7=
EXTT8=
EXTT9=
EXTT10=
PLAYORDER=
